HIERARCHY
ROOT SimulationBone
{
	OFFSET 0.000000 0.000000 0.000000
	CHANNELS 6 Xposition Yposition Zposition Zrotation Yrotation Xrotation 
	JOINT Hips
	{
		OFFSET 0.000000 0.000000 0.000000
		CHANNELS 6 Xposition Yposition Zposition Zrotation Yrotation Xrotation 
		JOINT RightUpLeg
		{
			OFFSET 0.103457 1.857818 10.548502
			CHANNELS 3 Zrotation Yrotation Xrotation
			JOINT RightLeg
			{
				OFFSET 43.500000 -0.000011 -0.000004
				CHANNELS 3 Zrotation Yrotation Xrotation
				JOINT RightFoot
				{
					OFFSET 42.372192 -0.000004 -0.000008
					CHANNELS 3 Zrotation Yrotation Xrotation
					JOINT RightToe
					{
						OFFSET 17.300014 0.000006 0.000001
						CHANNELS 3 Zrotation Yrotation Xrotation
						End Site
						{
							OFFSET 0.000000 0.000000 0.000000
						}
					}
				}
			}
		}
		JOINT LeftUpLeg
		{
			OFFSET 0.103457 1.857817 -10.548505
			CHANNELS 3 Zrotation Yrotation Xrotation
			JOINT LeftLeg
			{
				OFFSET 43.500046 -0.000004 0.000011
				CHANNELS 3 Zrotation Yrotation Xrotation
				JOINT LeftFoot
				{
					OFFSET 42.372257 0.000000 0.000015
					CHANNELS 3 Zrotation Yrotation Xrotation
					JOINT LeftToe
					{
						OFFSET 17.300003 -0.000000 0.000002
						CHANNELS 3 Zrotation Yrotation Xrotation
						End Site
						{
							OFFSET 0.000000 0.000000 0.000000
						}
					}
				}
			}
		}
		JOINT Spine
		{
			OFFSET 6.901961 -2.603721 -0.000001
			CHANNELS 3 Zrotation Yrotation Xrotation
			JOINT Spine1
			{
				OFFSET 12.588108 0.000002 -0.000001
				CHANNELS 3 Zrotation Yrotation Xrotation
				JOINT Spine2
				{
					OFFSET 12.343199 -0.000020 0.000006
					CHANNELS 3 Zrotation Yrotation Xrotation
					JOINT Neck
					{
						OFFSET 25.832905 0.000017 0.000000
						CHANNELS 3 Zrotation Yrotation Xrotation
						JOINT Head
						{
							OFFSET 11.766604 -0.000006 0.000004
							CHANNELS 3 Zrotation Yrotation Xrotation
							End Site
							{
								OFFSET 0.000000 0.000000 0.000000
							}
						}
					}
					JOINT RightShoulder
					{
						OFFSET 19.745903 -1.480350 6.000100
						CHANNELS 3 Zrotation Yrotation Xrotation
						JOINT RightArm
						{
							OFFSET 11.284130 -0.000016 -0.000016
							CHANNELS 3 Zrotation Yrotation Xrotation
							JOINT RightForeArm
							{
								OFFSET 33.000046 0.000004 0.000031
								CHANNELS 3 Zrotation Yrotation Xrotation
								JOINT RightHand
								{
									OFFSET 25.199999 0.000027 0.000001
									CHANNELS 3 Zrotation Yrotation Xrotation
									End Site
									{
										OFFSET 0.000000 0.000000 0.000000
									}
								}
							}
						}
					}
					JOINT LeftShoulder
					{
						OFFSET 19.746094 -1.480375 -6.000080
						CHANNELS 3 Zrotation Yrotation Xrotation
						JOINT LeftArm
						{
							OFFSET 11.284131 -0.000016 -0.000017
							CHANNELS 3 Zrotation Yrotation Xrotation
							JOINT LeftForeArm
							{
								OFFSET 33.000095 0.000009 0.000020
								CHANNELS 3 Zrotation Yrotation Xrotation
								JOINT LeftHand
								{
									OFFSET 25.199789 0.000132 0.000423
									CHANNELS 3 Zrotation Yrotation Xrotation
									End Site
									{
										OFFSET 0.000000 0.000000 0.000000
									}
								}
							}
						}
					}
				}
			}
		}
	}
}
MOTION
Frames: 15
Frame Time: 0.033333
132.668962 0.000000 -546.094775 180.000000 -48.823143 180.000000 -5.731493 87.564049 6.368030 83.002445 13.138981 -169.472411 -177.893001 -0.234603 -179.657690 -26.905862 -3.861826 -0.098368 81.849586 3.849883 15.763771 21.454558 0.003110 0.000014 138.812093 -4.184901 175.960385 -66.997087 1.539005 6.730480 73.796417 -3.673324 4.106375 21.454555 -0.003087 0.000001 9.559824 1.023975 -4.394261 9.018121 2.387253 -8.696971 8.703737 2.334755 -8.711075 3.018090 18.199966 17.589450 -18.217098 -25.349926 30.370347 178.371278 -77.058365 0.189875 -8.862701 60.402894 17.769806 -105.375701 0.032529 3.031584 3.143828 -1.987723 22.979278 -151.975834 74.626893 30.165049 40.243843 -48.390668 -51.809198 -97.447429 3.871151 -2.906868 8.610771 2.841766 -68.352497 
129.384575 0.000000 -541.938584 180.000000 -51.157924 180.000000 -5.976917 88.815247 5.893157 81.485475 14.102224 -170.133823 -177.598169 -2.067403 178.803957 -28.478315 -2.570543 1.566955 75.957147 2.127596 10.865596 21.454557 0.003116 0.000019 138.791630 -5.061501 176.436108 -53.470587 2.276612 4.793783 75.309789 -1.878215 5.760249 21.454551 -0.003092 0.000001 9.602933 1.582548 -4.431784 9.063487 3.507233 -8.729723 8.748780 3.454510 -8.750528 0.884974 19.838286 17.263293 -17.124094 -26.947470 30.890630 -179.982752 -77.204360 -1.491254 -6.051602 60.911306 21.964007 -106.257499 0.162134 3.061481 2.005345 -2.987187 24.429090 -153.229120 74.039380 28.897946 40.655369 -47.921341 -50.029274 -97.774568 3.593121 -2.901957 6.784375 3.667580 -61.597364 
126.222596 0.000000 -537.506429 180.000000 -53.459795 180.000000 -6.185009 89.018600 5.375602 80.720111 13.905317 -171.279559 -178.874731 -1.452397 179.507330 -35.291529 -0.196150 1.088972 72.558780 0.905837 5.125318 21.454555 0.003105 0.000018 140.528273 -5.334392 177.523146 -42.333974 2.086110 3.179108 76.209215 -0.443194 6.902204 21.454550 -0.003089 0.000000 9.734847 1.873044 -4.226420 9.314858 4.080167 -8.293154 8.999527 4.030042 -8.317432 -0.151305 20.240764 16.693530 -16.759158 -28.081507 30.863641 -177.810506 -76.815791 -3.701096 -3.379908 60.599603 25.116795 -105.679713 -0.027486 3.049179 2.118743 -2.700588 28.334121 -155.487125 73.471156 26.597049 38.187273 -48.049339 -46.570023 -97.957740 3.547965 -2.906930 4.443785 5.193292 -62.468685 
123.160818 0.000000 -532.834483 180.000000 -55.730414 180.000000 -6.355789 88.234833 4.930657 81.141951 13.147352 -172.395093 178.833723 0.247197 -178.109777 -46.356105 1.337696 -0.062720 69.719511 1.039093 2.880611 21.454555 0.003109 0.000012 143.846325 -5.386399 -179.853825 -36.581909 2.023838 2.455225 75.969851 1.013343 10.167909 21.454553 -0.003103 0.000001 9.966571 1.993574 -3.812315 9.787095 4.302438 -7.447107 9.470980 4.257372 -7.472790 0.666260 19.032588 15.896960 -17.300246 -28.222750 29.960638 -175.883914 -76.278672 -5.661379 -0.951297 59.964806 27.115494 -103.344997 -0.435149 2.974164 3.472848 -1.619388 29.302714 -157.307193 73.309288 24.734012 33.291711 -48.459806 -42.041119 -97.888352 3.627976 -2.909444 2.003000 6.745987 -63.707107 
120.180217 0.000000 -527.962863 180.000000 -57.954556 180.000000 -6.615574 86.411926 4.787813 82.835424 12.814502 -173.502775 176.004385 0.979295 -176.788696 -60.439968 1.801429 -1.065434 70.758260 1.564781 2.519237 21.454553 0.003112 0.000014 147.665275 -6.026503 -176.884455 -38.055844 2.313660 3.201167 78.316438 -0.698126 6.420115 21.454555 -0.003096 -0.000001 10.312355 2.127870 -3.104837 10.501003 4.528726 -6.007924 10.183767 4.492292 -6.035076 2.796094 16.395756 14.787582 -18.398325 -27.231776 28.091161 -175.166348 -75.741921 -6.389199 1.366908 59.386815 28.097119 -99.174757 -1.133595 2.836907 5.169854 -0.858996 28.301731 -158.580190 73.487276 23.425052 26.526325 -48.497523 -36.444595 -97.348466 3.634011 -2.885856 0.739775 7.408173 -59.084948 
117.265099 0.000000 -522.906894 180.000000 -60.101977 180.000000 -6.943198 84.342743 4.895055 85.038447 13.284212 -175.057899 172.372323 0.214297 -177.759894 -75.110149 2.741715 -3.387290 71.908177 2.251289 -0.214066 21.454568 0.003099 0.000015 150.675244 -7.059903 -175.467068 -45.201990 2.561839 2.822527 85.775298 -1.131626 4.779972 21.454551 -0.003094 -0.000001 10.726643 2.376809 -2.140564 11.363476 4.952334 -4.040512 11.044957 4.927725 -4.070353 4.556055 13.254993 13.538310 -19.488188 -25.819300 25.938070 -175.298226 -74.874815 -6.245909 3.955599 59.174109 27.889298 -93.499655 -2.257358 2.661211 5.977820 -1.786946 30.028472 -160.998118 73.754227 20.941039 17.226581 -47.626609 -29.207668 -96.431473 3.523956 -2.837375 0.801734 6.894574 -50.352066 
114.403111 0.000000 -517.689027 180.000000 -62.143383 180.000000 -7.462473 82.443787 4.969040 86.478714 13.860034 -177.190793 166.520914 -1.154691 -179.892211 -88.597054 3.887220 -5.736082 71.715996 4.097994 0.444190 21.454558 0.003113 0.000018 154.033456 -7.396386 -175.147716 -50.522151 3.980944 1.668353 92.247838 -0.712013 3.973219 21.454551 -0.003084 -0.000000 11.073713 2.613564 -1.193587 12.098370 5.337535 -2.108977 11.779022 5.324577 -2.141243 4.693421 10.596466 12.517737 -20.259325 -24.780567 24.318713 -173.900100 -73.375643 -7.665702 7.347911 58.898504 28.077408 -87.659420 -4.722242 2.572789 5.530773 -4.868027 34.519510 -166.357740 74.470707 15.441034 6.140068 -45.713548 -21.342376 -95.979881 3.408920 -2.809247 1.007322 5.765840 -44.165786 
111.600173 0.000000 -512.331295 180.000000 -64.069159 180.000000 -8.168412 81.555840 4.740125 86.362168 13.615215 -179.939835 158.412017 -1.979004 177.991465 -98.234902 4.708110 -8.517465 73.978947 6.307504 1.427324 21.454558 0.003111 0.000018 158.178275 -6.616395 -174.787560 -51.618820 5.026214 0.089425 96.821715 0.070017 2.690098 21.454555 -0.003098 -0.000001 11.182462 2.560812 -0.368042 12.354119 5.146189 -0.460434 12.034623 5.143173 -0.491591 3.486658 9.051590 11.657345 -20.499460 -24.114639 23.098482 -170.207590 -71.753289 -11.452256 11.312400 57.743300 29.284614 -83.471113 -7.302536 2.567837 5.120020 -8.693075 35.651743 -174.472442 76.108784 7.141995 -4.508066 -44.316473 -13.915202 -97.034073 3.246702 -2.844803 0.473516 4.530792 -42.638579 
108.867230 0.000000 -506.857631 180.000000 -65.867533 180.000000 -8.802286 81.971046 4.232860 85.001727 12.689424 177.126748 149.224525 -2.331996 176.291868 -101.974601 4.868433 -10.242694 74.530314 7.813790 2.442706 21.454557 0.003110 0.000024 163.078157 -5.636792 -175.109262 -48.293556 5.197046 -1.151036 98.291968 0.858387 2.439089 21.454553 -0.003091 0.000001 10.973695 2.170121 0.472793 11.964770 4.279619 1.168631 11.645771 4.286459 1.142713 2.056153 8.714976 10.463097 -19.972491 -23.277512 21.441651 -165.814699 -70.917239 -15.976391 15.421718 55.173800 31.439009 -81.659057 -8.104073 2.544330 5.840519 -11.393217 31.015612 177.441771 78.284609 -1.072013 -12.898274 -45.052607 -7.321468 -99.612845 2.829546 -2.930204 -0.267136 3.431690 -41.304299 
106.216504 0.000000 -501.290997 180.000000 -67.515858 180.000000 -9.051174 83.398819 3.534388 83.239300 10.232717 174.363360 141.240676 -2.027496 174.490433 -99.566359 4.525142 -10.648913 74.809327 7.804452 1.325113 21.454562 0.003098 0.000020 168.852945 -4.248399 -177.564264 -41.291615 4.568877 -0.838414 97.046060 0.794946 3.514497 21.454553 -0.003081 0.000003 10.531130 1.302410 1.304850 11.081547 2.473790 2.729121 10.763493 2.490069 2.714133 1.035840 8.862614 8.848411 -18.871760 -21.793969 19.024664 -162.302124 -71.100637 -19.592715 19.061709 51.549302 34.467699 -81.550956 -7.790443 2.517721 6.357732 -12.501852 26.306410 173.426207 80.146826 -5.108028 -18.588233 -47.788665 -2.433896 -102.932802 2.167926 -3.030899 -0.175649 2.846475 -36.866243 
103.657426 0.000000 -495.632668 180.000000 -68.990756 180.000000 -8.942247 85.431557 2.772601 81.456766 7.258677 172.606510 135.471038 -1.011709 173.272542 -91.790625 3.455202 -9.861603 75.904056 7.306959 1.429761 21.454558 0.003121 0.000012 173.982349 -2.280104 179.707932 -34.047294 3.879975 0.620061 89.380060 0.307959 5.119741 21.454553 -0.003091 0.000001 10.024486 0.321222 1.899130 10.044211 0.476393 3.818935 9.726852 0.499290 3.815985 0.159077 8.497533 7.376553 -17.708158 -19.702454 16.451318 -160.147213 -71.570055 -21.804385 22.137505 48.018993 37.310205 -81.914869 -7.397568 2.506226 5.578059 -12.961215 26.642961 173.881740 81.258590 -4.615936 -21.842680 -51.124700 -0.280398 -106.304094 1.552460 -3.136029 0.497837 2.875794 -31.581944 
101.174384 0.000000 -489.856553 180.000000 -70.287667 180.000000 -8.752663 87.510887 1.998873 79.770368 4.107458 172.222898 131.959268 0.924900 172.846256 -79.928752 1.714887 -8.708635 75.467122 6.569768 1.429739 21.454555 0.003116 0.000017 177.807009 0.626401 179.273136 -28.502977 3.356715 1.131986 78.120166 0.594307 5.639836 21.454551 -0.003099 0.000003 9.608206 -0.554623 2.052732 9.181653 -1.270235 4.055176 8.864340 -1.245872 4.062746 -1.041996 7.256945 6.502349 -16.662649 -17.592045 14.411158 -159.163516 -71.536649 -22.816904 24.654606 45.627696 39.289707 -81.809786 -7.413568 2.502748 4.760280 -13.348285 29.255889 175.154710 81.758573 -3.313982 -23.148894 -53.682630 -0.772364 -109.029989 1.231062 -3.232192 0.885795 3.390308 -29.056277 
98.757037 0.000000 -483.923543 180.000000 -71.422480 180.000000 -8.644482 89.182426 1.457713 78.480479 1.943778 172.837797 131.183905 3.018197 172.656636 -65.084599 1.134579 -7.208189 75.203812 5.257934 0.428780 21.454563 0.003106 0.000019 -179.735253 3.160703 -179.168020 -26.851629 2.913333 0.832915 69.029594 2.500518 9.076259 21.454550 -0.003093 0.000000 9.401202 -1.081292 1.940219 8.753116 -2.306061 3.793815 8.435506 -2.283246 3.807645 -2.336257 5.656689 6.140865 -15.686571 -16.073040 13.073719 -159.118409 -70.921542 -22.873402 26.108094 44.867489 40.109302 -81.143269 -7.741260 2.496506 5.201347 -13.314450 29.852687 175.202835 81.840932 -3.264026 -22.824739 -54.800855 -2.952672 -110.282400 1.229703 -3.286124 0.683979 4.384516 -29.936323 
96.399283 0.000000 -477.812468 180.000000 -72.402892 180.000000 -8.318969 90.085350 1.321958 78.085908 1.868407 173.576751 133.635807 3.725094 173.141020 -49.389791 1.201579 -5.230149 76.385564 4.068367 1.239309 21.454560 0.003110 0.000015 -178.528960 2.871901 -178.870920 -30.333898 1.527915 0.270058 64.421470 3.388756 9.162636 21.454555 -0.003088 -0.000003 9.425323 -1.155389 1.884838 8.800432 -2.450565 3.677145 8.482727 -2.428479 3.691851 -2.924418 4.617098 5.969672 -14.836730 -15.264651 12.288185 -159.251598 -70.022375 -22.750911 26.000003 45.440405 39.683812 -80.534344 -8.114168 2.495981 5.979217 -12.630890 29.806672 174.796070 81.523833 -3.682995 -21.016161 -54.831136 -5.934208 -109.470099 1.509227 -3.270584 0.146083 5.761591 -33.036833 
94.086184 0.000000 -471.502467 180.000000 -73.241142 180.000000 -8.021329 89.879463 1.419811 78.769879 2.129639 174.063346 137.807481 4.111208 174.491471 -36.643391 0.867121 -4.841517 78.095584 3.899918 1.742098 21.454558 0.003114 0.000017 -178.467556 1.451097 177.907030 -38.328030 0.078659 1.041338 62.082472 2.526684 7.855346 21.454555 -0.003083 0.000000 9.617041 -1.206261 1.862106 9.183047 -2.556325 3.623444 8.865295 -2.534563 3.638788 -2.042752 4.643577 5.821116 -14.422566 -14.777012 11.880438 -158.820804 -69.244629 -23.208204 24.493706 46.629585 38.120109 -80.738546 -8.221954 2.512379 5.867188 -11.229424 31.619729 175.544290 81.026459 -2.937030 -18.352906 -54.722615 -8.881111 -106.595306 2.036026 -3.182471 -0.057247 6.985051 -37.193679 
